<svg xmlns="http://www.w3.org/2000/svg" width="41" height="41" fill="none"><path fill="#000" d="M12.612 36.997q-2.438 0-4.162-1.724-1.723-1.725-1.723-4.162V9.249q0-2.439 1.723-4.162 1.725-1.724 4.162-1.724h21.021v25.225q-1.05 0-1.787.736a2.43 2.43 0 0 0-.735 1.787q0 1.05.735 1.787.735.735 1.787.735v3.364zM10.09 25.772a4.8 4.8 0 0 1 1.22-.42 6.6 6.6 0 0 1 1.302-.127h.841V6.727h-.84q-1.052 0-1.787.735a2.43 2.43 0 0 0-.736 1.787zm6.727-.547H30.27V6.727H16.817zm-4.205 8.408h15.682a7.5 7.5 0 0 1-.4-1.198 5.6 5.6 0 0 1-.147-1.324q0-.673.127-1.303.126-.63.42-1.22H12.612q-1.092 0-1.807.736a2.47 2.47 0 0 0-.715 1.787q0 1.093.715 1.808.714.714 1.807.714"/></svg>