<?xml version="1.0" encoding="UTF-8" standalone="no"?><!DOCTYPE svg PUBLIC "-//W3C//DTD SVG 1.1//EN" "http://www.w3.org/Graphics/SVG/1.1/DTD/svg11.dtd"><svg width="100%" height="100%" viewBox="0 0 2704 1821" version="1.1" xmlns="http://www.w3.org/2000/svg" xmlns:xlink="http://www.w3.org/1999/xlink" xml:space="preserve" xmlns:serif="http://www.serif.com/" style="fill-rule:evenodd;clip-rule:evenodd;stroke-linecap:round;stroke-linejoin:round;stroke-miterlimit:1.5;"><path d="M844.742,1692.817c-241.21,61.79 -387.65,78.691 -577.14,68.427c-67.54,-3.658 -119.583,-12.346 -161.278,-26.395c-24.498,-8.255 -46.561,-18.493 -61.633,-30.232c-9.403,-7.324 -18.061,-14.492 -25.637,-25.132c-6.702,-9.414 -12.394,-21.868 -15.527,-36.765c-6.072,-28.87 -4.761,-65.659 11.959,-104.829c8.742,-20.481 22.292,-41.271 39.721,-62.768c18.212,-22.463 40.541,-44.937 68.628,-67.708c15.337,-12.434 32.186,-25.237 51.492,-37.524c6.812,-4.335 15.67,-9.208 22.964,-13.499c-5.381,13.408 -9.958,26.436 -14.45,38.812c-25.815,71.121 -35.462,125.144 -6.222,163.266c8.821,11.501 19.051,21.793 31.592,30.025c23.305,15.298 52.888,25.189 84.231,34.536c99.556,29.688 259.259,20.64 367.628,8.451c26.36,-2.965 52.974,-6.395 79.765,-10.246c-87.008,-69.17 -161.15,-153.758 -218.065,-249.608l22.511,-0c58.36,94.847 134.076,178.176 222.541,245.597c216.016,-33.139 441.892,-92.379 638.768,-154.15c116.109,-36.43 221.708,-73.288 310.115,-107.075c-91.097,39.147 -273.101,110.068 -423.543,169.497c-76.043,30.039 -144.371,56.06 -188.468,74.501c-29.112,12.175 -58.575,26.759 -84.151,35.228c-22.184,7.346 -43.879,15.888 -65.366,23.309c-30.024,10.37 -58.857,19.73 -83.792,26.978c130.064,73.53 279.852,115.722 438.359,116.092c322.611,0.752 608.024,-171.883 765.536,-429.978l21.946,-0c-158.864,269.372 -452.866,449.802 -787.532,449.022c-169.288,-0.395 -328.438,-46.976 -464.953,-127.833Zm-635.987,-354.143l-78.834,-66.717l0,-677.727l77.577,-67.835l75.626,67.83l1.688,273.748l101.274,-98.571l0,-176.155l69.048,-67.335l67.581,62.456l0,221.527l-127.349,127.353l133.203,136.149l0,194.7l-66.55,64.893l-69.587,-58.561l2.436,-150.753l-109.148,-95.669l1.785,240.048l-78.748,70.618Zm400.314,-79.348l58.563,-66.868l155.184,0.032l0,-176.65l-235.692,-0.02l0.003,-455.75l317.149,0l65.895,65.871l-64.402,70.75l-167.862,0l0.002,190.805l227.877,-0.01l0,441.603l-300.587,-0.002l-56.131,-69.761Zm486.511,78.056l-71.235,-76.61l-0.005,-667.035l71.475,-70.759l177.864,165.418l175.917,-165.418l70.988,70.27l0,668.508l-71.225,75.619l-71.246,-76.61l-0.005,-450.855l-105.668,89.292l-105.62,-88.813l-0.004,451.358l-71.236,75.635Zm486.001,-392.803l69.303,-71.261l107.828,0.017l70.768,71.244l-70.762,71.236l-106.872,0.002l-70.265,-71.237Zm346.688,-414.284l71.984,70.286l0,668.002l-71.984,75.626l-72.457,-76.619l0.007,-667.022l72.45,-70.273Zm151.521,9.764l288.867,-0.001l60.031,64.254l-61.015,71.866l-151.742,0.024l0.02,120.019l139.547,-0.038l56.102,64.945l-68.29,71.238l-121.518,0.018l-0.001,335.711l-68.103,70.259l-73.899,-70.27l0.001,-728.025Zm-1565.312,-73.193c158.132,-278.991 459.235,-467.45 800.142,-466.656c339.677,0.792 636.554,188.909 792.176,466.713l-23.511,-0.148c-154.624,-266.968 -441.651,-447.625 -769.397,-448.39c-329.176,-0.767 -619.529,180.235 -776.166,448.44l-23.243,0.04Zm1628.795,-59.338c50.302,-27.237 96.256,-47.029 165.515,-74.71c162.477,-64.938 312.638,-69.686 372.14,-21.665c14.647,11.821 22.189,44.856 22.605,63.144c0.69,30.327 -15.119,59.274 -35.244,86.365c-24.008,32.319 -56.893,61.191 -94.692,80.893c-7.939,4.138 -16.095,7.871 -24.43,11.147c6.171,-83.645 13.683,-129.585 -23.353,-163.71c-19.364,-17.842 -63.441,-29.215 -115.32,-31.604c-36.394,-1.676 -78.513,4.112 -124.874,11.462c-43.569,6.908 -91.807,22.171 -142.347,38.679Zm-473.359,66.575l0.001,-109.222c15.106,-1.739 27.303,-2.351 35.026,-1.229c15.373,2.319 24.563,10.94 25.841,24.679c0.555,13.798 -4.869,21.749 -15.474,26.806l-0.014,0.964c10.921,3.272 19.766,12.587 19.602,26.425c-0.803,20.149 -12.692,30.321 -33.323,32.624c-11.648,0.825 -19.065,0.547 -31.658,-1.046Zm21.561,-94.471l-0.118,29.652c9.923,0.801 17.001,-2.735 18.311,-15.063c-0.367,-11.145 -5.54,-16.991 -18.193,-14.59Zm-0.118,45.502l0.202,33.786c10.075,1.068 19.604,-2.131 20.731,-14.78c0.859,-11.43 -5.928,-20.266 -20.932,-19.005Zm132.277,-61.71c4.904,16.719 9.708,33.449 13.662,50.273c3.568,-18.472 7.598,-34.542 11.693,-50.273l22.795,0l-25.165,67.309l0,43.94l-21.492,0l-0.035,-42.922l-24.411,-68.327l22.952,0Zm-579.763,111.249l-20.929,0l24.185,-111.249l25.857,0l21.358,111.249l-20.592,0l-4.929,-25.374l-20.017,0.007l-4.932,25.366Zm15.459,-90.905l-8.329,48.787l15.755,0.045l-7.425,-48.832Zm351.985,91.131l-20.929,0l24.185,-111.249l25.857,0l21.358,111.249l-20.592,0l-4.929,-25.374l-20.017,0.007l-4.932,25.366Zm15.459,-90.905l-8.329,48.787l15.755,0.045l-7.425,-48.832Zm-487.277,90.679l0.008,-111.249l21.47,-0l-0.01,111.249l-21.469,0Zm28.793,-91.358l-0.004,-19.891l61.008,0l-0.014,20.004l-19.998,-0.006l-0.002,91.251l-21.477,0l0.026,-91.231l-19.539,-0.127Zm-92.228,69.146c5.217,2.659 10.773,4.01 16.656,4.102c13.119,0.236 16.639,-5.63 16.443,-13.858c0.545,-6.763 -9.269,-13.153 -19.919,-20.662c-5.41,-4.191 -9.374,-8.801 -11.836,-13.847c-3.423,-6.322 -3.952,-13.495 -2.527,-21.243c2.955,-12.015 10.079,-18.339 19.024,-22.176c12.413,-3.931 23.04,-2.63 32.696,1.519l-3.489,18.598c-4.1,-2.434 -8.662,-3.329 -13.618,-3.387c-8.666,-0.416 -13.199,4.74 -13.879,9.729c-0.812,5.955 2.624,10.481 9.043,15.131c21.174,11.899 24.448,22.218 26.112,32.395c0.991,20.626 -10.977,31.631 -23.141,34.932c-12.382,3.243 -23.938,2.355 -34.704,-2.482l3.137,-18.751Zm224.43,0.033c5.217,2.659 10.773,4.01 16.656,4.102c12.427,0.264 16.076,-4.557 16.664,-12.817c0.289,-3.587 -2.535,-8.553 -6.653,-12.152c-3.647,-3.188 -8.486,-6.024 -13.488,-9.551c-5.41,-4.191 -9.374,-8.801 -11.836,-13.847c-3.423,-6.322 -3.952,-13.495 -2.527,-21.243c2.955,-12.015 10.079,-18.339 19.024,-22.176c12.413,-3.931 23.04,-2.63 32.696,1.519l-3.489,18.598c-4.1,-2.434 -8.662,-3.329 -13.618,-3.387c-8.666,-0.416 -13.199,4.74 -13.879,9.729c-0.812,5.955 2.624,10.481 9.043,15.131c21.174,11.899 24.448,22.218 26.112,32.395c0.991,20.626 -10.977,31.631 -23.141,34.932c-12.382,3.243 -23.938,2.355 -34.704,-2.482l3.137,-18.751Zm82.986,-0.033c5.217,2.659 10.773,4.01 16.656,4.102c13.119,0.236 16.639,-5.63 16.443,-13.858c0.637,-7.213 -9.106,-13.123 -19.919,-20.662c-5.41,-4.191 -9.374,-8.801 -11.836,-13.847c-3.423,-6.322 -3.952,-13.495 -2.527,-21.243c2.955,-12.015 10.079,-18.339 19.024,-22.176c12.413,-3.931 23.04,-2.63 32.696,1.519l-3.489,18.598c-4.1,-2.434 -8.662,-3.329 -13.618,-3.387c-8.666,-0.416 -13.199,4.74 -13.879,9.729c-0.812,5.955 2.624,10.481 9.043,15.131c21.174,11.899 24.448,22.218 26.112,32.395c0.991,20.626 -10.977,31.631 -23.141,34.932c-12.382,3.243 -23.938,2.355 -34.704,-2.482l3.137,-18.751Zm-706.982,-88.943l21.496,-0.044l0.205,73.237c0,0 -0.863,20.687 10.702,20.44c10.593,-0.226 10.381,-19.671 10.381,-19.671l0.016,-73.973l21.629,-0.118l0.289,73.974c0,0 1.246,38.418 -32.245,38.818c-34.177,0.408 -32.5,-38.508 -32.5,-38.508l0.027,-74.155Zm769.589,-0.512l21.496,-0.044l0.205,73.237c0,0 -0.863,20.687 10.702,20.44c10.593,-0.226 10.381,-19.671 10.381,-19.671l0.016,-73.973l21.629,-0.118l0.289,73.974c0,0 1.246,38.418 -32.245,38.818c-34.177,0.408 -32.5,-38.508 -32.5,-38.508l0.027,-74.155Zm-690.085,0.383l19.954,0l28.755,75.724l-1.889,-75.724l19.008,0l-0.002,111.279l-19.956,-0.012l-28.138,-75.966l1.256,75.983l-19.034,-0.008l0.047,-111.276Zm80.977,111.284l-0.129,-111.284l21.674,0l-0.137,111.284l-21.407,0Zm27.135,-111.284l23.841,0l13.678,86.897l12.949,-86.897l23.881,0l-25.431,111.284l-24.356,0l-24.562,-111.284Zm80.298,111.284l-0.101,-111.284l48.31,0l-0.002,18.57l-26.834,0.009l0.013,25.853l24.895,0.011l-0.019,17.558l-24.874,0.021l0.001,30.752l28.37,0.055l0,18.454l-49.758,0Zm61.024,0l-0.111,-109.806c14.223,-2.224 27.582,-2.935 39.559,-0.293c11.761,3.085 14.555,6.005 18.672,12.162c3.292,4.923 5.257,19.698 1.99,28.426c-1.424,3.804 -3.3,7.36 -5.894,10.019c-3.096,3.175 -6.059,5.107 -9.423,7.021c13.888,4.859 12.62,26.589 20.482,52.47l-22.671,0c-3.423,-11.529 -5.386,-24.69 -7.211,-35.6c-0.741,-4.43 -4.325,-7.186 -7.667,-8.789l-6.296,0l-0.043,44.388l-21.388,0Zm21.397,-94.4l0.062,33.411c10.105,0.243 17.941,-2.958 18.52,-17.167c0.161,-12.253 -5.781,-17.938 -18.582,-16.244Zm498.319,94.4l-0.111,-109.806c14.223,-2.224 27.582,-2.935 39.559,-0.293c11.761,3.085 14.555,6.005 18.672,12.162c3.292,4.923 5.257,19.698 1.99,28.426c-1.424,3.804 -3.3,7.36 -5.894,10.019c-3.096,3.175 -6.059,5.107 -9.423,7.021c13.888,4.859 12.62,26.589 20.482,52.47l-22.671,0c-3.423,-11.529 -5.386,-24.69 -7.211,-35.6c-0.741,-4.43 -4.325,-7.186 -7.667,-8.789l-6.296,0l-0.043,44.388l-21.388,0Zm21.444,-94.4l0.062,33.411c10.105,0.243 17.941,-2.958 18.52,-17.167c0.161,-12.253 -5.781,-17.938 -18.582,-16.244Zm211.485,94.4l-20.929,0l24.185,-111.249l25.857,0l21.358,111.249l-20.592,0l-4.929,-25.374l-20.017,0.007l-4.932,25.366Zm15.459,-90.905l-8.329,48.787l15.755,0.045l-7.425,-48.832Zm109.258,90.905l-20.929,0l24.185,-111.249l25.857,0l21.358,111.249l-20.592,0l-4.929,-25.374l-20.017,0.007l-4.932,25.366Zm15.459,-90.905l-8.329,48.787l15.755,0.045l-7.425,-48.832Z" style="stroke:#000;stroke-width:0.42px;"/></svg>