<svg xmlns="http://www.w3.org/2000/svg" width="50" height="50" fill="#FFF"><path d="M9 4C6.24 4 4 6.24 4 9v32c0 2.76 2.24 5 5 5h32c2.76 0 5-2.24 5-5V9c0-2.76-2.24-5-5-5zm16 7c8.27 0 15 5.36 15 11.95 0 2.63-1.04 5.01-3.22 7.35-1.57 1.78-4.12 3.74-6.47 5.36-2.35 1.6-4.51 2.86-5.31 3.19-.32.13-.56.19-.75.19-.66 0-.6-.7-.55-.99.04-.22.22-1.26.22-1.26.05-.37.1-.96-.05-1.33-.17-.41-.84-.62-1.33-.72C15.34 33.8 10 28.85 10 22.95 10 16.36 16.73 11 25 11m-1.008 7.998c-.504.01-.992.394-.992 1.002v6a1 1 0 0 0 2 0v-2.879l2.186 3.46c.566.791 1.814.392 1.814-.581v-6a1 1 0 0 0-2 0v3l-2.186-3.58a.97.97 0 0 0-.822-.422M15 19a1 1 0 0 0-1 1v6a1 1 0 0 0 1 1h3a1 1 0 0 0 0-2h-2v-5a1 1 0 0 0-1-1m6 0a1 1 0 0 0-1 1v6a1 1 0 0 0 2 0v-6a1 1 0 0 0-1-1m10 0a1 1 0 0 0-1 1v6a1 1 0 0 0 1 1h3a1 1 0 0 0 0-2h-2v-1h2a1 1 0 1 0 0-2h-2v-1h2a1 1 0 0 0 0-2z"/></svg>