<svg xmlns="http://www.w3.org/2000/svg" xml:space="preserve" style="fill-rule:evenodd;clip-rule:evenodd;stroke-linecap:round;stroke-linejoin:round;stroke-miterlimit:1.5" viewBox="0 0 2704 1821"><path d="M844.742 1692.817c-241.21 61.79-387.65 78.691-577.14 68.427-67.54-3.658-119.583-12.346-161.278-26.395-24.498-8.255-46.561-18.493-61.633-30.232-9.403-7.324-18.061-14.492-25.637-25.132-6.702-9.414-12.394-21.868-15.527-36.765-6.072-28.87-4.761-65.659 11.959-104.829 8.742-20.481 22.292-41.271 39.721-62.768 18.212-22.463 40.541-44.937 68.628-67.708 15.337-12.434 32.186-25.237 51.492-37.524 6.812-4.335 15.67-9.208 22.964-13.499-5.381 13.408-9.958 26.436-14.45 38.812-25.815 71.121-35.462 125.144-6.222 163.266 8.821 11.501 19.051 21.793 31.592 30.025 23.305 15.298 52.888 25.189 84.231 34.536 99.556 29.688 259.259 20.64 367.628 8.451 26.36-2.965 52.974-6.395 79.765-10.246-87.008-69.17-161.15-153.758-218.065-249.608h22.511c58.36 94.847 134.076 178.176 222.541 245.597 216.016-33.139 441.892-92.379 638.768-154.15 116.109-36.43 221.708-73.288 310.115-107.075-91.097 39.147-273.101 110.068-423.543 169.497-76.043 30.039-144.371 56.06-188.468 74.501-29.112 12.175-58.575 26.759-84.151 35.228-22.184 7.346-43.879 15.888-65.366 23.309-30.024 10.37-58.857 19.73-83.792 26.978 130.064 73.53 279.852 115.722 438.359 116.092 322.611.752 608.024-171.883 765.536-429.978h21.946c-158.864 269.372-452.866 449.802-787.532 449.022-169.288-.395-328.438-46.976-464.953-127.833Zm-635.987-354.143-78.834-66.717V594.23l77.577-67.835 75.626 67.83 1.688 273.748 101.274-98.571V593.247l69.048-67.335 67.581 62.456v221.527L395.366 937.248l133.203 136.149v194.7l-66.55 64.893-69.587-58.561 2.436-150.753-109.148-95.669 1.785 240.048-78.748 70.618Zm400.314-79.348 58.563-66.868 155.184.032v-176.65l-235.692-.02.003-455.75h317.149l65.895 65.871-64.402 70.75H737.907l.002 190.805 227.877-.01v441.603l-300.587-.002-56.131-69.761Zm486.511 78.056-71.235-76.61-.005-667.035 71.475-70.759 177.864 165.418 175.917-165.418 70.988 70.27v668.508l-71.225 75.619-71.246-76.61-.005-450.855-105.668 89.292-105.62-88.813-.004 451.358zm486.001-392.803 69.303-71.261 107.828.017 70.768 71.244-70.762 71.236-106.872.002-70.265-71.237Zm346.688-414.284 71.984 70.286v668.002l-71.984 75.626-72.457-76.619.007-667.022zm151.521 9.764 288.867-.001 60.031 64.254-61.015 71.866-151.742.024.02 120.019 139.547-.038 56.102 64.945-68.29 71.238-121.518.018-.001 335.711-68.103 70.259-73.899-70.27zM514.478 466.866C672.61 187.875 973.713-.584 1314.62.21c339.677.792 636.554 188.909 792.176 466.713l-23.511-.148c-154.624-266.968-441.651-447.625-769.397-448.39-329.176-.767-619.529 180.235-776.166 448.44l-23.243.04Zm1628.795-59.338c50.302-27.237 96.256-47.029 165.515-74.71 162.477-64.938 312.638-69.686 372.14-21.665 14.647 11.821 22.189 44.856 22.605 63.144.69 30.327-15.119 59.274-35.244 86.365-24.008 32.319-56.893 61.191-94.692 80.893a254 254 0 0 1-24.43 11.147c6.171-83.645 13.683-129.585-23.353-163.71-19.364-17.842-63.441-29.215-115.32-31.604-36.394-1.676-78.513 4.112-124.874 11.462-43.569 6.908-91.807 22.171-142.347 38.679Zm-473.359 66.575.001-109.222c15.106-1.739 27.303-2.351 35.026-1.229 15.373 2.319 24.563 10.94 25.841 24.679.555 13.798-4.869 21.749-15.474 26.806l-.014.964c10.921 3.272 19.766 12.587 19.602 26.425-.803 20.149-12.692 30.321-33.323 32.624-11.648.825-19.065.547-31.658-1.046Zm21.561-94.471-.118 29.652c9.923.801 17.001-2.735 18.311-15.063-.367-11.145-5.54-16.991-18.193-14.59Zm-.118 45.502.202 33.786c10.075 1.068 19.604-2.131 20.731-14.78.859-11.43-5.928-20.266-20.932-19.005Zm132.277-61.71c4.904 16.719 9.708 33.449 13.662 50.273 3.568-18.472 7.598-34.542 11.693-50.273h22.795l-25.165 67.309v43.94h-21.492l-.035-42.922-24.411-68.327zm-579.763 111.249h-20.929l24.185-111.249h25.857l21.358 111.249h-20.592l-4.929-25.374-20.017.007zm15.459-90.905-8.329 48.787 15.755.045-7.425-48.832Zm351.985 91.131h-20.929l24.185-111.249h25.857l21.358 111.249h-20.592l-4.929-25.374-20.017.007zm15.459-90.905-8.329 48.787 15.755.045-7.425-48.832Zm-487.277 90.679.008-111.249h21.47l-.01 111.249zm28.793-91.358-.004-19.891h61.008l-.014 20.004-19.998-.006-.002 91.251h-21.477l.026-91.231zm-92.228 69.146c5.217 2.659 10.773 4.01 16.656 4.102 13.119.236 16.639-5.63 16.443-13.858.545-6.763-9.269-13.153-19.919-20.662-5.41-4.191-9.374-8.801-11.836-13.847-3.423-6.322-3.952-13.495-2.527-21.243 2.955-12.015 10.079-18.339 19.024-22.176 12.413-3.931 23.04-2.63 32.696 1.519l-3.489 18.598c-4.1-2.434-8.662-3.329-13.618-3.387-8.666-.416-13.199 4.74-13.879 9.729-.812 5.955 2.624 10.481 9.043 15.131 21.174 11.899 24.448 22.218 26.112 32.395.991 20.626-10.977 31.631-23.141 34.932-12.382 3.243-23.938 2.355-34.704-2.482l3.137-18.751Zm224.43.033c5.217 2.659 10.773 4.01 16.656 4.102 12.427.264 16.076-4.557 16.664-12.817.289-3.587-2.535-8.553-6.653-12.152-3.647-3.188-8.486-6.024-13.488-9.551-5.41-4.191-9.374-8.801-11.836-13.847-3.423-6.322-3.952-13.495-2.527-21.243 2.955-12.015 10.079-18.339 19.024-22.176 12.413-3.931 23.04-2.63 32.696 1.519l-3.489 18.598c-4.1-2.434-8.662-3.329-13.618-3.387-8.666-.416-13.199 4.74-13.879 9.729-.812 5.955 2.624 10.481 9.043 15.131 21.174 11.899 24.448 22.218 26.112 32.395.991 20.626-10.977 31.631-23.141 34.932-12.382 3.243-23.938 2.355-34.704-2.482l3.137-18.751Zm82.986-.033c5.217 2.659 10.773 4.01 16.656 4.102 13.119.236 16.639-5.63 16.443-13.858.637-7.213-9.106-13.123-19.919-20.662-5.41-4.191-9.374-8.801-11.836-13.847-3.423-6.322-3.952-13.495-2.527-21.243 2.955-12.015 10.079-18.339 19.024-22.176 12.413-3.931 23.04-2.63 32.696 1.519l-3.489 18.598c-4.1-2.434-8.662-3.329-13.618-3.387-8.666-.416-13.199 4.74-13.879 9.729-.812 5.955 2.624 10.481 9.043 15.131 21.174 11.899 24.448 22.218 26.112 32.395.991 20.626-10.977 31.631-23.141 34.932-12.382 3.243-23.938 2.355-34.704-2.482l3.137-18.751Zm-706.982-88.943 21.496-.044.205 73.237s-.863 20.687 10.702 20.44c10.593-.226 10.381-19.671 10.381-19.671l.016-73.973 21.629-.118.289 73.974s1.246 38.418-32.245 38.818c-34.177.408-32.5-38.508-32.5-38.508zm769.589-.512 21.496-.044.205 73.237s-.863 20.687 10.702 20.44c10.593-.226 10.381-19.671 10.381-19.671l.016-73.973 21.629-.118.289 73.974s1.246 38.418-32.245 38.818c-34.177.408-32.5-38.508-32.5-38.508zM756 363.389h19.954l28.755 75.724-1.889-75.724h19.008l-.002 111.279-19.956-.012-28.138-75.966 1.256 75.983-19.034-.008zm80.977 111.284-.129-111.284h21.674l-.137 111.284zm27.135-111.284h23.841l13.678 86.897 12.949-86.897h23.881L913.03 474.673h-24.356zm80.298 111.284-.101-111.284h48.31l-.002 18.57-26.834.009.013 25.853 24.895.011-.019 17.558-24.874.021.001 30.752 28.37.055v18.454zm61.024 0-.111-109.806c14.223-2.224 27.582-2.935 39.559-.293 11.761 3.085 14.555 6.005 18.672 12.162 3.292 4.923 5.257 19.698 1.99 28.426-1.424 3.804-3.3 7.36-5.894 10.019-3.096 3.175-6.059 5.107-9.423 7.021 13.888 4.859 12.62 26.589 20.482 52.47h-22.671c-3.423-11.529-5.386-24.69-7.211-35.6-.741-4.43-4.325-7.186-7.667-8.789h-6.296l-.043 44.388h-21.388Zm21.397-94.4.062 33.411c10.105.243 17.941-2.958 18.52-17.167.161-12.253-5.781-17.938-18.582-16.244m498.319 94.4-.111-109.806c14.223-2.224 27.582-2.935 39.559-.293 11.761 3.085 14.555 6.005 18.672 12.162 3.292 4.923 5.257 19.698 1.99 28.426-1.424 3.804-3.3 7.36-5.894 10.019-3.096 3.175-6.059 5.107-9.423 7.021 13.888 4.859 12.62 26.589 20.482 52.47h-22.671c-3.423-11.529-5.386-24.69-7.211-35.6-.741-4.43-4.325-7.186-7.667-8.789h-6.296l-.043 44.388h-21.388Zm21.444-94.4.062 33.411c10.105.243 17.941-2.958 18.52-17.167.161-12.253-5.781-17.938-18.582-16.244m211.485 94.4h-20.929l24.185-111.249h25.857l21.358 111.249h-20.592l-4.929-25.374-20.017.007zm15.459-90.905-8.329 48.787 15.755.045zm109.258 90.905h-20.929l24.185-111.249h25.857l21.358 111.249h-20.592l-4.929-25.374-20.017.007zm15.459-90.905-8.329 48.787 15.755.045z" style="stroke:#000;stroke-width:.42px"/></svg>