<svg xmlns="http://www.w3.org/2000/svg" width="41" height="41" fill="none"><path fill="#000" d="M15.43 18.204q-1.977-1.975-1.977-4.75t1.976-4.751q1.977-1.976 4.75-1.976 2.775 0 4.752 1.976t1.976 4.75q-.001 2.775-1.976 4.751-1.977 1.976-4.751 1.976t-4.75-1.976m-8.703 15.43v-4.71q0-1.428.735-2.627a4.9 4.9 0 0 1 1.955-1.829 25 25 0 0 1 5.297-1.955 23.1 23.1 0 0 1 5.466-.651q2.775 0 5.465.651a25 25 0 0 1 5.298 1.955 4.9 4.9 0 0 1 1.954 1.83q.736 1.197.736 2.627v4.708zm3.363-3.364h20.18v-1.345q0-.463-.231-.841a1.64 1.64 0 0 0-.61-.589 22 22 0 0 0-4.582-1.702 19.5 19.5 0 0 0-9.334 0q-2.312.567-4.582 1.702-.379.21-.61.589a1.6 1.6 0 0 0-.231.84zm12.465-14.441q.988-.988.988-2.376t-.988-2.375a3.24 3.24 0 0 0-2.375-.988q-1.388 0-2.375.988a3.24 3.24 0 0 0-.988 2.375q0 1.388.988 2.376.987.988 2.375.988t2.375-.988"/></svg>